<svg id="Layer_1" data-name="Layer 1" xmlns="http://www.w3.org/2000/svg" viewBox="0 0 122.88 90.22"><title>shower-curtain</title><path d="M106.32,39.33l0,0a.56.56,0,0,0-.78-.14l-4.35,3A.55.55,0,0,0,101,43l0,.05a.58.58,0,0,0,.79.14l4.35-3a.56.56,0,0,0,.13-.78ZM92.66,1.76a3.29,3.29,0,0,1,3.22,3.36,3.29,3.29,0,0,1-3.22,3.36A3.18,3.18,0,0,1,90,7H79.74a8.1,8.1,0,0,1-.36,1.29,25.16,25.16,0,0,1,8.36,2.24,1.39,1.39,0,0,1,.83,1.27v37h29.24V34.63c-.84-4.11-3.2-5.22-6.37-4.77,1.43,2.49,1.24,5-.78,7.58a1.25,1.25,0,0,1,0,1.37l-.63.73c-.25.25-.56.27-1,0l-9.67-9.77a.51.51,0,0,1,.1-.83c.68-.84.77-1,2-.78,2.71-1.76,5.29-2.08,7.73-.68,6.1-2.51,11.3.65,12,7h0V49a2.47,2.47,0,0,1,.94.61h0a2.67,2.67,0,0,1,.77,1.86v2.4a2.62,2.62,0,0,1-.77,1.85h0a2.61,2.61,0,0,1-1.86.77h-2.45l-2.36,11a10.28,10.28,0,0,1-3.78,6.25,10.82,10.82,0,0,1-4.59,2L108.6,79A1.43,1.43,0,0,1,106,80.23L104,76H88.58V86.41a1.38,1.38,0,0,1-.67,1.19,16.81,16.81,0,0,1-3.47,1.93,9.41,9.41,0,0,1-3.43.69,45.37,45.37,0,0,1-6.18-.62,17,17,0,0,1-4.45-1.24c-4.09-2.1-5.25-1.51-7.07-.58a17.48,17.48,0,0,1-4.78,1.77,12.3,12.3,0,0,1-1.66.23,12.12,12.12,0,0,1-1.8,0,4.78,4.78,0,0,1-1.68-.53,11.91,11.91,0,0,1-1.2-.7c-1.89-1.19-3.28-2-4.58-2.24s-2.72.26-4.9,1.63A10.52,10.52,0,0,1,40.48,89a8.81,8.81,0,0,1-2.87.47,10.59,10.59,0,0,1-4.09-1.35c-.54-.26-1.1-.52-1.56-.72-4.79-2-5.94-1.07-7.19,0a7.12,7.12,0,0,1-5.59,2,16,16,0,0,1-5.69-1.62l-.81-.35a10.22,10.22,0,0,0-2.24-.61,8.62,8.62,0,0,0-2.18-.1,1.39,1.39,0,0,1-1.56-1.2v-.17h0V13.18a1.39,1.39,0,0,1,1.16-1.37,1.58,1.58,0,0,1,.36-.2c.52-.19,1.1-.43,1.73-.7a31.24,31.24,0,0,1,6-2A7.07,7.07,0,0,1,15.32,7H5.89A3.18,3.18,0,0,1,3.21,8.48,3.29,3.29,0,0,1,0,5.12,3.29,3.29,0,0,1,3.21,1.76a3.2,3.2,0,0,1,2.85,1.8H15.4a6.35,6.35,0,0,1,.65-1.72A3.15,3.15,0,0,1,18.73,0a3.14,3.14,0,0,1,2.68,1.84,6.35,6.35,0,0,1,.65,1.72h12.5a6.35,6.35,0,0,1,.65-1.72,2.88,2.88,0,0,1,5.37,0,6.34,6.34,0,0,1,.64,1.72H53.48a6.35,6.35,0,0,1,.65-1.72,2.87,2.87,0,0,1,5.36,0,6.35,6.35,0,0,1,.65,1.72H73a6.69,6.69,0,0,1,.65-1.72,2.88,2.88,0,0,1,5.37,0,6.69,6.69,0,0,1,.65,1.72H89.81a3.2,3.2,0,0,1,2.85-1.8Zm-75,1.8h2.22a3.86,3.86,0,0,0-.29-.68c-.26-.45-.55-.74-.82-.74s-.55.29-.81.74a4.79,4.79,0,0,0-.3.68Zm19.16,0H39a3.86,3.86,0,0,0-.29-.68c-.26-.45-.55-.74-.82-.74s-.55.29-.81.74a4.79,4.79,0,0,0-.3.68Zm18.92,0h2.22a3.25,3.25,0,0,0-.3-.68c-.25-.45-.54-.74-.81-.74s-.56.29-.81.74a3.25,3.25,0,0,0-.3.68Zm19.51,0h2.23a4.79,4.79,0,0,0-.3-.68c-.26-.45-.55-.74-.81-.74s-.56.29-.82.74a4.79,4.79,0,0,0-.3.68ZM77.55,7H75.1a4.26,4.26,0,0,0,.41,1.06,2.81,2.81,0,0,0,.24.36c.4-.06.82-.1,1.25-.13,0-.07.09-.15.14-.23A4.26,4.26,0,0,0,77.55,7ZM72.92,7H60.22a7.1,7.1,0,0,1-.63,1.92,19.27,19.27,0,0,1,3.79,1.49,6.85,6.85,0,0,0,2.8.92,9.81,9.81,0,0,0,3.71-1.08,31.46,31.46,0,0,1,3.64-1.35A7,7,0,0,1,72.92,7ZM58,7H55.59A4.26,4.26,0,0,0,56,8.05a1.93,1.93,0,0,0,.23.35c.22,0,.43,0,.64,0l.47,0a2.78,2.78,0,0,0,.28-.42A4.26,4.26,0,0,0,58,7ZM53.4,7H41.3a6.72,6.72,0,0,1-.72,2.11l-.07.1a10.74,10.74,0,0,1,2.2,1.09c2.18,1.37,3.62,1.8,4.9,1.62s2.69-1.05,4.58-2.23c.34-.22.77-.49,1.2-.71.18-.08.36-.17.55-.24A6.82,6.82,0,0,1,53.4,7ZM39.12,7H36.67a4.26,4.26,0,0,0,.41,1.06,1.78,1.78,0,0,0,.57.67h.46a1.71,1.71,0,0,0,.6-.68A4.26,4.26,0,0,0,39.12,7ZM34.48,7H22.14a7,7,0,0,1-.71,2.09,13.9,13.9,0,0,1,2.81,1.4c1.79,1.07,3.49,2.09,7.72.31.46-.2,1-.46,1.56-.72s1.21-.57,1.79-.8l-.1-.17A7,7,0,0,1,34.48,7ZM20,7H17.51a4.26,4.26,0,0,0,.41,1.06,2,2,0,0,0,.44.57l.73,0a2.12,2.12,0,0,0,.46-.59A4.26,4.26,0,0,0,20,7ZM88.58,69.61v3.47h15.83a9,9,0,0,0,5.5-1.61,7.55,7.55,0,0,0,2.72-4.58l2.23-10.4H88.58V69.61ZM9.47,14.11V83.92c.44,0,.91.07,1.39.15a12.68,12.68,0,0,1,2.89.79l.83.35a14.06,14.06,0,0,0,4.7,1.41A4.85,4.85,0,0,0,23,85.23c1.92-1.58,3.69-3,10-.37.62.26,1.16.52,1.68.76a9.55,9.55,0,0,0,2.9,1.09,6,6,0,0,0,2-.33,8.09,8.09,0,0,0,1.67-.81c2.8-1.76,4.8-2.3,6.74-2s3.49,1.27,5.68,2.64a8.41,8.41,0,0,0,1,.56,2.21,2.21,0,0,0,.68.25,9.25,9.25,0,0,0,1.39,0A8.31,8.31,0,0,0,58,86.83a15.1,15.1,0,0,0,4.09-1.53c2.58-1.32,4.23-2.16,9.59.59a14.81,14.81,0,0,0,3.64,1,40.1,40.1,0,0,0,5.72.58,6.68,6.68,0,0,0,2.43-.5,13.42,13.42,0,0,0,2.36-1.26v-73c-7.46-3-11.62-1.27-14.83.08a11.5,11.5,0,0,1-4.87,1.29,8.8,8.8,0,0,1-3.93-1.2A16.48,16.48,0,0,0,58,11.38a8.31,8.31,0,0,0-1.26-.18,9.25,9.25,0,0,0-1.39,0,2,2,0,0,0-.68.25,8.41,8.41,0,0,0-1,.56C51.48,13.4,49.88,14.4,48,14.67s-3.94-.27-6.74-2a8.09,8.09,0,0,0-1.67-.81,6,6,0,0,0-2-.33,9.74,9.74,0,0,0-2.9,1.08c-.52.25-1.06.5-1.68.77-5.52,2.33-7.81,1-10.22-.49a7.74,7.74,0,0,0-4.64-1.45A21.83,21.83,0,0,0,11,13.48h0c-.55.23-1.07.45-1.54.63ZM76.79,61.44a1.07,1.07,0,0,1,2.14,0v14.7a1.07,1.07,0,0,1-2.14,0V61.44Zm0-45.18a1.07,1.07,0,0,1,2.14,0v39.8a1.07,1.07,0,1,1-2.14,0V16.26ZM56,68.73a1.08,1.08,0,0,1,2.15,0V79.36a1.08,1.08,0,0,1-2.15,0V68.73Zm0-48.15a1.08,1.08,0,1,1,2.15,0v41a1.08,1.08,0,0,1-2.15,0v-41Zm-19.32,33a1.08,1.08,0,0,1,2.15,0v14.7a1.08,1.08,0,0,1-2.15,0V53.53Zm0-36.46a1.08,1.08,0,0,1,2.15,0V48.16a1.08,1.08,0,0,1-2.15,0V17.07ZM17.61,52.82a1.07,1.07,0,0,1,2.14,0V75.71a1.07,1.07,0,0,1-2.14,0V52.82Zm0-28.49a1.07,1.07,0,0,1,2.14,0V47.45a1.07,1.07,0,0,1-2.14,0V24.33Zm71,27.37v1.92H120V51.7Zm12.28-17.08,0,0a.55.55,0,0,0-.78-.14l-4.36,3.05a.56.56,0,0,0-.13.78l0,0a.58.58,0,0,0,.79.14l4.34-3.05a.56.56,0,0,0,.14-.79Zm-2.5-2.51,0,0a.56.56,0,0,0-.78-.14l-4.35,3a.55.55,0,0,0-.14.78l0,0a.57.57,0,0,0,.79.14l4.35-3a.56.56,0,0,0,.14-.78Zm5,5,0-.05a.56.56,0,0,0-.78-.13l-4.36,3a.58.58,0,0,0-.14.79l0,0a.55.55,0,0,0,.78.14l4.36-3a.56.56,0,0,0,.13-.78Z"/></svg>